<?xml version="1.0" encoding="UTF-8" standalone="no"?>
<!-- Generator: Adobe Illustrator 19.0.0, SVG Export Plug-In . SVG Version: 6.00 Build 0)  -->

<svg
   xmlns:dc="http://purl.org/dc/elements/1.1/"
   xmlns:cc="http://creativecommons.org/ns#"
   xmlns:rdf="http://www.w3.org/1999/02/22-rdf-syntax-ns#"
   xmlns:svg="http://www.w3.org/2000/svg"
   xmlns="http://www.w3.org/2000/svg"
   xmlns:sodipodi="http://sodipodi.sourceforge.net/DTD/sodipodi-0.dtd"
   xmlns:inkscape="http://www.inkscape.org/namespaces/inkscape"
   version="1.1"
   id="Layer_1"
   x="0px"
   y="0px"
   viewBox="0 0 300.003 300.003"
   style="enable-background:new 0 0 300.003 300.003;"
   xml:space="preserve"
   sodipodi:docname="up-arrow-svg-blue.svg"
   inkscape:version="0.92.4 (5da689c313, 2019-01-14)"><metadata
   id="metadata5548"><rdf:RDF><cc:Work
       rdf:about=""><dc:format>image/svg+xml</dc:format><dc:type
         rdf:resource="http://purl.org/dc/dcmitype/StillImage" /></cc:Work></rdf:RDF></metadata><defs
   id="defs5546" /><sodipodi:namedview
   pagecolor="#ffffff"
   bordercolor="#666666"
   borderopacity="1"
   objecttolerance="10"
   gridtolerance="10"
   guidetolerance="10"
   inkscape:pageopacity="0"
   inkscape:pageshadow="2"
   inkscape:window-width="1920"
   inkscape:window-height="1053"
   id="namedview5544"
   showgrid="false"
   inkscape:zoom="1.5733176"
   inkscape:cx="-12.711297"
   inkscape:cy="143.67946"
   inkscape:window-x="1920"
   inkscape:window-y="110"
   inkscape:window-maximized="1"
   inkscape:current-layer="g5511" />
<g
   id="g5511">
	<g
   id="g5509"
   transform="rotate(-180,150.0015,150.0015)">
		<path
   d="M 150,0 C 67.159,0 0.001,67.159 0.001,150 c 0,82.838 67.157,150.003 149.997,150.003 82.84,0 150.004,-67.165 150.004,-150.003 C 300.002,67.159 232.842,0 150,0 Z m 67.685,189.794 c -5.47,5.467 -14.338,5.47 -19.81,0 l -48.26,-48.27 -48.522,48.516 c -5.467,5.467 -14.338,5.47 -19.81,0 -2.731,-2.739 -4.098,-6.321 -4.098,-9.905 0,-3.584 1.367,-7.166 4.103,-9.897 l 56.292,-56.297 c 0.539,-0.838 1.157,-1.637 1.888,-2.368 2.796,-2.796 6.476,-4.142 10.146,-4.077 3.662,-0.062 7.348,1.281 10.141,4.08 0.734,0.729 1.349,1.528 1.886,2.365 l 56.043,56.043 c 5.468,5.47 5.472,14.338 0.001,19.81 z"
   id="path5507"
   inkscape:connector-curvature="0" />
	</g>
<path
   style="fill:#517397;fill-opacity:1;stroke:#517397;stroke-width:1;stroke-miterlimit:4;stroke-dasharray:none;stroke-opacity:1"
   d="m 140.50124,299.47974 c -16.27411,-1.61918 -25.68168,-3.5447 -38.56302,-7.89297 C 80.695786,284.41609 62.746022,273.4773 46.337413,257.703 22.182264,234.48162 7.1101466,205.28181 1.8218751,171.46128 0.23205194,161.29376 0.24224607,138.51425 1.8412069,128.26317 8.0778259,88.279669 28.685699,53.987914 61.051298,29.736845 103.00135,-1.6957157 160.08061,-8.3960353 208.82819,12.38987 c 47.7642,20.366587 81.17694,63.900802 89.4038,116.48624 1.58321,10.11973 1.56819,32.30816 -0.0288,42.58517 -3.97108,25.55449 -13.53948,48.29856 -29.07913,69.12102 -5.87761,7.87574 -20.67438,22.67556 -28.51587,28.52173 -21.2697,15.85751 -44.44829,25.49185 -70.23375,29.19314 -6.3742,0.91496 -25.1088,1.65659 -29.87318,1.18257 z M 156.39123,191.4974 c 2.71744,-1.13504 63.9151,-62.66941 65.29119,-65.65042 1.50476,-3.25975 1.46094,-9.08278 -0.0912,-12.12531 -1.84023,-3.60714 -5.03557,-6.37693 -8.56628,-7.42544 -3.9484,-1.17255 -4.45438,-1.16791 -8.68944,0.0797 -3.29098,0.96949 -4.63293,2.19352 -28.72449,26.20038 l -25.27222,25.18338 -24.62234,-24.57925 c -18.39226,-18.36008 -25.34604,-24.9055 -27.482538,-25.86863 -11.180622,-5.04018 -22.908038,5.05345 -19.690207,16.94712 0.756262,2.79528 3.194866,5.42237 31.706225,34.15689 16.98783,17.12079 31.45019,31.55342 32.13859,32.07251 3.216,2.42507 9.52431,2.87965 14.00275,1.00907 z"
   id="path6137"
   inkscape:connector-curvature="0" /></g>
<g
   id="g5513">
</g>
<g
   id="g5515">
</g>
<g
   id="g5517">
</g>
<g
   id="g5519">
</g>
<g
   id="g5521">
</g>
<g
   id="g5523">
</g>
<g
   id="g5525">
</g>
<g
   id="g5527">
</g>
<g
   id="g5529">
</g>
<g
   id="g5531">
</g>
<g
   id="g5533">
</g>
<g
   id="g5535">
</g>
<g
   id="g5537">
</g>
<g
   id="g5539">
</g>
<g
   id="g5541">
</g>
</svg>